<svg width="1998pt" height="2026pt" version="1.0" viewBox="-3 -3 2004 2032" xmlns="http://www.w3.org/2000/svg">
    <g stroke-width="0">
        <rect x="-3" y="-3" width="2004" height="2032" rx="0" fill="#fff"/>
    </g>
    <g transform="translate(0 2026) scale(.1 -.1)">
        <path d="m0 10130v-10130h19980v20260h-19980v-10130zm10187 7260c10 0 13-52 15-207 3-199 4-208 23-211 41-8 152-56 205-90 139-88 271-288 283-427 2-19-5-20-200-23l-202-2-20 38c-23 46-69 102-82 102-6 0-8-86-7-211l3-212 95-31c144-49 209-87 298-177 92-93 142-225 142-374 0-154-47-276-155-403-54-64-196-143-307-171l-73-19v-257l800-10 74-29c81-32 163-103 194-168 25-53 38-131 24-140-7-4-601-7-1322-5l-1310 2-3 36c-4 43 32 129 73 177 35 42 91 78 164 105 53 20 79 21 474 25l417 3v267l-45 7c-112 16-258 97-352 195-70 72-114 141-146 231-35 97-41 135-21 143 22 9 387 7 400-2 6-4 21-29 34-55 24-48 114-142 128-133 4 2 6 110 4 240-2 211-4 236-19 236-35 0-200 61-263 98-56 32-134 104-170 157-15 22-39 73-54 113-22 63-26 89-26 186 0 74 5 131 16 167 50 169 151 288 307 363 50 24 118 50 150 57l57 12v193c0 157 3 194 14 201 11 6 248 8 383 3zm1313-3169c25-8 53-17 62-22 10-5 25-9 33-9 33 0 163-70 212-114 127-114 155-282 86-506-7-25-17-54-22-65s-13-31-19-45c-41-101-142-307-209-430-59-109-112-208-142-265-14-27-29-51-33-53-5-2-8-12-8-22s-4-20-8-22c-7-3-57-103-93-185-8-18-17-33-21-33-5 0-8-6-8-14 0-7-12-40-26-72-14-33-32-72-39-89-35-79-99-281-131-410-8-33-19-76-24-95-27-110-45-234-61-435-5-66-13-158-17-205l-7-85h-2090l-7 80c-4 44-12 139-18 210-9 112-17 181-34 295-25 164-110 475-166 608-6 12-14 32-19 45-5 12-21 48-35 81-14 32-26 65-26 72 0 8-4 14-10 14-5 0-10 9-10 20s-4 20-10 20c-5 0-10 5-10 10 0 12-90 202-99 210-4 3-19 32-36 65-16 33-32 62-35 65s-20 34-39 70c-18 36-46 88-61 115-74 133-155 300-207 425-8 19-19 44-24 55s-20 60-34 109c-57 201-21 361 107 471 47 39 175 105 207 105 11 0 22 4 25 9 6 10 61 20 161 31 39 4 707 6 1485 5 1125-1 1424-4 1460-14zm-347-3319c43-29 64-56 78-100 16-55-8-121-59-160l-35-27h-2314l-35 27c-93 71-83 192 19 260 27 17 81 18 1173 18s1146-1 1173-18zm-130-422c5 0 6-39 4-87-27-520-31-708-32-1213 0-603 18-1140 54-1595 5-66 14-194 20-285s15-201 21-245c5-44 12-105 15-135 6-64 21-201 35-315 5-44 17-141 25-215 9-74 20-162 25-195 4-33 15-114 24-180 16-117 23-162 45-292 6-35 15-89 20-120 6-32 17-101 26-153s21-117 25-145c5-27 14-72 20-100 13-57 22-105 45-225 9-47 21-105 26-130 6-25 12-58 15-75 3-16 9-39 14-50s11-33 14-50c2-16 9-48 15-70 5-22 15-69 21-105 7-36 16-74 20-85 5-11 11-33 15-50 3-16 8-41 11-55s9-34 14-45 11-31 14-45c10-55 48-206 55-225 17-43 31-92 31-108 0-10 4-25 9-35 5-9 14-35 19-57 39-150 197-640 282-875 23-63 43-124 44-135 1-20-5-20-2034-20s-2035 0-2034 20c1 11 21 72 44 135 65 177 180 530 180 551 0 10 5 21 10 24 6 3 10 15 10 26 0 10 4 27 9 37 9 17 52 157 73 237 5 22 14 48 19 57 5 10 9 29 9 42 0 14 4 27 9 30s11 20 14 38 17 78 32 133 29 111 32 125c2 14 8 34 13 45 9 21 18 59 27 113 3 18 9 35 14 38s9 17 9 31c0 32 29 162 41 185 5 10 9 33 9 52s4 37 9 40 11 23 14 43c3 21 10 61 16 88 31 148 60 301 67 345 3 19 9 44 14 55s11 38 13 60c3 22 12 83 21 135 10 52 21 122 27 155 5 33 14 83 19 110 18 102 32 191 34 215 5 43 17 133 26 190 5 30 14 96 20 145 6 50 16 119 21 155s14 112 20 170 14 143 20 190c27 249 40 395 70 800 38 510 54 990 54 1605 0 517-5 704-32 1204-3 49-1 86 5 90 7 4 1620 5 2085 1zm-7665-1871c13-5 35-9 49-9 15 0 40-4 57-10 17-5 69-21 116-35s94-30 105-34c64-27 186-89 222-113 23-15 44-28 48-28 3 0 11-5 18-10 7-6 37-29 67-52 81-59 232-208 301-295 84-105 219-361 219-414 0-10 5-21 10-24 6-3 10-17 10-30s4-26 9-29 12-20 15-38c4-18 11-55 17-83 32-160 37-473 9-590-21-89-32-130-40-150-4-11-16-47-26-80-32-109-138-311-213-405-20-24-45-56-56-70-47-60-168-174-262-247l-42-33h-1733l-31 22c-18 12-48 35-68 52-19 17-57 49-83 70-94 78-245 283-328 446-26 52-48 100-48 107s-5 23-12 36c-24 48-28 57-28 76 0 11-4 22-9 25s-11 20-14 38-13 71-23 118c-18 89-25 372-12 460 3 25 9 65 13 90 7 54 19 97 57 215 141 431 504 800 938 953 124 44 288 80 385 86 90 5 337-5 363-15zm13727 0c242-51 430-125 590-232 279-188 505-474 604-767 12-36 26-74 31-85 14-32 29-111 50-260 15-110 8-335-15-450-9-44-19-95-22-113s-9-35-14-38-9-14-9-25c0-10-4-28-10-39-5-11-14-29-20-40-5-11-10-24-10-30 0-22-84-184-141-270-75-115-181-243-240-290-24-19-59-49-79-66-19-16-48-40-64-52l-29-22h-1738l-42 33c-96 75-198 172-276 262-90 104-219 337-255 460-10 33-22 69-26 80-8 20-19 61-40 150-18 75-24 355-10 460 6 50 14 108 17 130s9 44 14 50c5 5 9 19 9 32s4 31 9 41c5 9 14 35 21 57 38 126 153 346 221 426 16 19 29 36 29 39 0 12 229 231 280 269 30 22 60 45 67 51 7 5 15 10 18 10 4 0 25 13 48 28 113 76 317 155 502 194 129 27 417 31 530 7zm-13066-2880c47-17 81-67 81-120 0-38-5-50-36-80l-35-34-882-3c-604-2-894 0-919 8-75 21-109 101-73 170 21 41 49 54 130 60 141 12 1701 10 1734-1zm13741-14c59-30 79-119 38-170-44-57-13-55-962-55-553 0-884 4-901 10-48 18-75 58-75 111 0 42 5 53 35 84l36 35h900c785 0 904-2 929-15zm-13876-397c28-421 60-663 125-958 28-124 43-199 48-233 3-20 9-40 14-43s9-18 9-34 5-32 10-35c6-3 10-17 10-30s4-34 9-47 14-41 19-63c32-118 45-162 53-177 5-10 9-25 9-33s4-23 9-33c5-9 21-55 35-102 23-74 47-140 76-215 4-11 24-65 45-120 53-140 92-230 167-380 48-97 146-262 176-298 9-9 13-19 10-22s-717-6-1586-8c-1480-2-1582-1-1582 15 0 9 5 20 10 23 25 15 172 250 222 355 15 30 40 84 57 119 17 36 31 70 31 78 0 7 5 13 10 13 6 0 10 6 10 14s12 43 26 78c34 82 39 95 57 144 23 60 72 210 92 279 10 33 24 80 32 104 15 47 59 209 74 274 5 20 14 56 19 80 33 132 50 215 90 435 25 132 31 175 45 297 18 151 33 331 41 498l6 117h1516l6-92zm13720-20c13-237 41-511 65-643 41-222 46-245 76-380 15-66 30-135 32-153 3-18 9-35 14-38s9-15 9-26c0-12 4-35 9-52s17-60 26-96c10-36 21-76 25-90s18-59 30-100c64-218 154-476 216-617 8-18 20-48 28-65 56-129 80-182 86-188 3-3 17-31 33-63 32-68 131-233 157-262 9-11 16-24 14-30-4-10-3162-11-3171-1-2 2 19 35 47 72 107 142 227 374 325 624 9 25 21 54 26 65 27 68 79 217 79 230 0 8 4 23 9 33 15 30 28 66 41 112 7 25 16 54 20 65 17 44 40 133 40 153 0 11 5 24 10 27 6 3 10 21 10 40s5 37 10 40c6 3 10 19 10 35s4 31 9 34c4 3 11 25 14 48 4 24 14 75 23 113 8 39 18 86 20 105 3 19 9 44 14 55s11 38 14 60 10 65 15 95c40 219 67 468 87 808l7 102h1514l7-112zm-5372-2685c60-27 135-103 168-167 47-94 30-244-37-327-39-48-103-99-124-99-9 0-19-3-23-7-31-31-98-32-2233-33-2391 0-2190-6-2315 73-27 17-48 33-48 37 0 3-9 16-19 27-70 74-89 234-41 329 44 86 136 165 215 185 17 4 1016 6 2220 6l2190-2 47-22zm-7459-235c48-27 67-60 67-114 0-47-3-55-35-83l-36-31h-1645c-1511 0-1647 1-1670 16-51 34-70 116-38 163 9 12 30 31 48 42 30 18 74 19 1659 19 1283 0 1632-3 1650-12zm13747-26c33-32 40-46 40-76 0-46-21-88-54-110-23-15-159-16-1670-16h-1645l-36 31c-32 28-35 36-35 83 0 53 19 85 65 113 15 9 409 12 1657 12l1637 1 41-38zm-13625-323c97-51 162-180 134-267-30-93-75-150-149-185l-45-22-1707-3-1707-2-53 24c-69 32-114 79-138 147-25 68-25 105 0 171 30 79 88 134 170 159 14 4 795 7 1735 6l1710-2 50-26zm13712 4c58-32 100-79 123-141 25-66 25-108 0-174-23-62-69-112-130-141l-45-22-1705-3c-1702-2-1705-2-1756 18-115 47-190 178-162 287 23 92 94 168 178 191 22 6 678 9 1745 9l1710-2 42-22zm-6025-172c13-5 41-14 63-21 58-18 104-40 150-71 49-33 215-198 215-214 0-7 8-19 18-28 9-9 26-33 37-54s22-40 25-43c13-11 95-197 125-285 12-33 48-175 66-255 37-169 66-429 76-678l8-202h-3388c-3222 0-3388 1-3383 18 2 9 8 105 11 212 10 276 41 523 94 735 5 22 15 60 21 85 10 43 22 80 41 128 44 109 45 112 75 177 16 33 44 84 64 114 19 29 40 62 46 71 15 27 111 129 171 181 29 25 78 58 110 73s66 31 75 37c10 5 28 9 40 9 13 0 30 5 38 10 19 12 5169 14 5202 1zm-7397-421c3-6 16-10 28-10 36 0 123-57 190-123 62-63 148-183 168-235 6-15 21-49 34-77 83-176 139-476 151-812l6-173h-5272v147c0 257 48 566 121 774 26 74 83 191 121 248 33 50 177 201 191 201 5 0 22 9 37 20 16 11 42 23 59 26 17 4 34 11 37 15 8 13 4121 12 4129-1zm13719 1c3-4 19-11 35-14 69-14 218-141 288-247 147-220 238-608 246-1038l2-132h-5277l6 173c11 324 66 627 145 802 10 22 26 57 35 78 29 69 109 181 171 241 73 70 117 101 181 126 47 17 131 18 2106 19 1158 1 2059-3 2062-8z"/>
        <path d="m9742 16594c-106-83-94-271 20-330l28-15v186c0 102-3 185-7 185-5 0-23-12-41-26z"/>
        <path d="m10200 15535c0-102 2-185 6-185 16 0 78 60 95 92 20 40 26 138 10 180-14 37-79 98-103 98-5 0-8-83-8-185z"/>
    </g>
</svg>
